<svg xmlns="http://www.w3.org/2000/svg" xmlns:xlink="http://www.w3.org/1999/xlink" viewBox="0,0,256,256" width="50px" height="50px" fill-rule="nonzero"><g fill="#149f40" fill-rule="nonzero" stroke="none" stroke-width="1" stroke-linecap="butt" stroke-linejoin="miter" stroke-miterlimit="10" stroke-dasharray="" stroke-dashoffset="0" font-family="none" font-weight="none" font-size="none" text-anchor="none" style="mix-blend-mode: normal"><g transform="scale(5.12,5.12)"><path d="M25,2c-12.461,0 -22.63242,9.9638 -22.98242,22.3418c0.842,-1.409 2.01733,-2.8418 2.98633,-2.8418c1.713,0 2.12619,2.00253 2.49219,3.76953c0.366,1.767 0.73381,3.23047 1.50781,3.23047c0.76,0 1.21073,-3.22348 1.42773,-4.77148c0.391,-2.789 0.72869,-5.19752 2.55469,-5.22852h0.03906c2.16,0 2.34608,3.04077 2.58008,6.88477c0.209,3.425 0.49644,8.11523 2.39844,8.11523c2.397,0 2.95339,-5.56225 3.40039,-10.03125c0.501,-5.008 0.89761,-8.96475 3.59961,-8.96875h0.00391c2.699,0.004 3.09375,3.95884 3.59375,8.96484c0.448,4.472 1.00525,10.03516 3.40625,10.03516c1.9,0 2.18553,-4.68928 2.39453,-8.11328c0.235,-3.845 0.42203,-6.88672 2.58203,-6.88672h0.03906c1.826,0.03 2.16369,2.43852 2.55469,5.22852c0.217,1.549 0.66869,4.77148 1.42969,4.77148c0.774,0 1.13891,-1.46347 1.50391,-3.23047c0.365,-1.767 0.77919,-3.76953 2.49219,-3.76953c0.967,0 2.13552,1.40478 2.97852,2.80078c-0.373,-12.359 -10.53442,-22.30078 -22.98242,-22.30078zM25.00586,16.5c-0.894,0.007 -1.37833,4.84397 -1.61133,7.16797c-0.554,5.546 -1.18362,11.83203 -5.39062,11.83203c-3.784,0 -4.10853,-5.30819 -4.39453,-9.99219c-0.097,-1.582 -0.23727,-3.86005 -0.57227,-4.74805c-0.269,0.696 -0.477,2.19209 -0.625,3.24609c-0.426,3.044 -0.9092,6.49414 -3.4082,6.49414c-2.466,0 -3.0448,-2.78917 -3.4668,-4.82617c-0.144,-0.694 -0.37623,-1.8242 -0.61523,-2.1582c-0.214,0.076 -1.77181,1.79269 -2.88281,2.80469c0.687,12.07 10.72194,21.67969 22.96094,21.67969c12.234,0 22.26303,-9.60106 22.95703,-21.66406c-1.113,-1.012 -2.65809,-2.74531 -2.87109,-2.82031c-0.238,0.335 -0.47223,1.4642 -0.61523,2.1582c-0.421,2.037 -0.99689,4.82617 -3.46289,4.82617c-2.5,0 -2.98416,-3.45014 -3.41016,-6.49414c-0.148,-1.054 -0.356,-2.54909 -0.625,-3.24609c-0.335,0.889 -0.47527,3.168 -0.57227,4.75c-0.287,4.684 -0.61058,9.99023 -4.39258,9.99023c-4.21,0 -4.84148,-6.28989 -5.39648,-11.83789c-0.232,-2.323 -0.71447,-7.15511 -1.60547,-7.16211z"></path></g></g></svg>